<svg display="none" xmlns="http://www.w3.org/2000/svg" xmlns:xlink="http://www.w3.org/1999/xlink"> 
    <symbol id="waves3" viewBox="0 0 92 65"  width="3.81cm" height="2.399cm">
		<g>
			<path fill-rule="evenodd" 
 d="M85.215,50.989 C73.744,53.627 66.422,50.362 60.729,40.065 C57.016,33.349 52.238,31.219 44.759,32.940 C33.395,35.552 26.461,32.459 20.821,22.260 C17.068,15.469 13.245,13.763 5.676,15.504 L4.739,11.334 C13.936,9.221 19.811,11.589 24.555,20.173 C29.028,28.264 33.737,31.088 43.822,28.769 C53.385,26.567 59.928,29.778 64.463,37.978 C69.118,46.399 74.531,49.062 84.278,46.818 C93.845,44.617 98.524,46.705 103.268,55.290 L99.534,57.376 C95.721,50.473 92.908,49.220 85.215,50.989 ZM89.957,40.373 C78.486,43.013 71.164,39.747 65.471,29.450 C61.759,22.733 56.981,20.601 49.501,22.325 C38.136,24.938 31.203,21.843 25.563,11.645 C21.810,4.855 17.987,3.148 10.418,4.890 L9.481,0.718 C18.679,-1.398 24.552,0.973 29.297,9.558 C33.770,17.650 38.478,20.472 48.564,18.154 C58.127,15.952 64.669,19.163 69.205,27.363 C73.859,35.783 79.272,38.447 89.020,36.204 C98.587,34.003 103.266,36.090 108.010,44.674 L104.276,46.762 C100.463,39.858 97.650,38.604 89.957,40.373 ZM19.813,30.789 C24.285,38.882 28.995,41.703 39.080,39.383 C48.643,37.182 55.186,40.393 59.721,48.592 C64.375,57.017 69.788,59.679 79.536,57.433 C89.103,55.232 93.782,57.319 98.527,65.905 L94.793,67.992 C90.978,61.092 88.165,59.836 80.473,61.603 C69.003,64.243 61.679,60.980 55.987,50.680 C52.275,43.965 47.496,41.834 40.017,43.555 C28.652,46.171 21.718,43.077 16.079,32.875 C12.326,26.084 8.504,24.379 0.935,26.119 L-0.002,21.948 C9.194,19.835 15.069,22.204 19.813,30.789 Z"/>
		</g>
	</symbol>

    <symbol id="waves3_" width="3.81cm" height="2.399cm">
		<g>
			<path fill-rule="evenodd" 
 d="M22.795,50.987 C34.266,53.626 41.588,50.361 47.282,40.063 C50.994,33.348 55.772,31.217 63.252,32.938 C74.616,35.551 81.550,32.458 87.191,22.259 C90.944,15.468 94.766,13.762 102.336,15.503 L103.272,11.332 C94.076,9.219 88.201,11.587 83.456,20.171 C78.983,28.263 74.275,31.086 64.189,28.768 C54.626,26.565 48.083,29.776 43.547,37.977 C38.893,46.397 33.479,49.060 23.731,46.817 C14.164,44.616 9.485,46.705 4.741,55.289 L8.475,57.376 C12.289,50.472 15.101,49.218 22.795,50.987 ZM18.053,40.371 C29.524,43.012 36.846,39.745 42.540,29.448 C46.251,22.731 51.029,20.600 58.510,22.323 C69.875,24.936 76.808,21.843 82.449,11.645 C86.202,4.853 90.024,3.147 97.594,4.888 L98.531,0.717 C89.333,-1.399 83.459,0.973 78.715,9.556 C74.241,17.648 69.533,20.471 59.447,18.153 C49.884,15.951 43.341,19.161 38.806,27.361 C34.151,35.781 28.737,38.445 18.989,36.202 C9.422,34.002 4.743,36.089 -0.001,44.674 L3.733,46.761 C7.547,39.857 10.359,38.602 18.053,40.371 ZM88.198,30.787 C83.726,38.882 79.016,41.701 68.931,39.382 C59.368,37.180 52.825,40.391 48.289,48.591 C43.636,57.015 38.222,59.678 28.473,57.432 C18.906,55.231 14.227,57.319 9.483,65.904 L13.217,67.991 C17.032,61.090 19.844,59.835 27.536,61.601 C39.008,64.242 46.331,60.978 52.024,50.678 C55.736,43.963 60.514,41.832 67.994,43.553 C79.359,46.169 86.293,43.075 91.932,32.873 C95.686,26.083 99.508,24.377 107.077,26.119 L108.014,21.946 C98.818,19.833 92.943,22.203 88.198,30.787 Z"/>
		</g>
	</symbol>

	<symbol id="wave" viewBox="0 0 92 65">
		<g>
	<path id="wave1" fill-rule="evenodd" 
 d="M88.628,7.166 C88.483,8.031 88.046,8.512 86.996,8.322 L77.569,6.355 C76.764,6.183 75.895,5.891 75.723,6.850 L74.108,15.201 C73.963,16.066 73.471,16.732 72.475,16.355 L63.047,14.391 C62.184,14.252 61.260,14.145 61.090,15.102 L59.473,23.455 C59.328,24.320 58.836,24.985 57.840,24.609 L48.414,22.643 C47.609,22.470 46.685,22.365 46.455,23.357 L44.649,32.474 C44.409,32.927 43.978,33.148 43.221,33.010 L33.795,31.045 C32.990,30.872 32.120,30.580 31.948,31.539 L30.334,39.889 C30.188,40.754 29.697,41.422 28.701,41.045 L19.273,39.080 C18.409,38.939 17.486,38.834 17.315,39.790 L15.699,48.143 C15.553,49.008 15.062,49.676 14.066,49.299 L4.640,47.334 C3.835,47.160 2.911,47.054 2.680,48.046 L0.009,61.532 L1.940,64.985 L3.306,57.875 C3.476,56.916 4.551,57.013 5.262,57.160 L14.691,59.127 C15.681,59.352 16.085,58.811 16.263,58.004 L17.939,49.621 C18.085,48.756 19.186,48.759 19.837,48.940 L29.263,50.905 C30.314,51.099 30.750,50.615 30.896,49.751 L32.513,41.402 C32.684,40.442 33.761,40.539 34.470,40.688 L43.898,42.652 C44.889,42.879 45.292,42.336 45.471,41.532 L47.254,32.849 C47.611,32.300 48.436,32.349 49.037,32.471 L58.465,34.436 C59.456,34.663 59.859,34.121 60.038,33.315 L61.713,24.932 C61.859,24.066 62.960,24.070 63.612,24.251 L73.038,26.217 C74.089,26.408 74.525,25.926 74.670,25.063 L76.288,16.712 C76.458,15.754 77.535,15.850 78.244,15.997 L87.672,17.962 C88.664,18.188 89.067,17.648 89.245,16.842 L92.010,3.380 L90.113,-0.012 L88.628,7.166 Z"/>
 </g>
	</symbol>


</svg>